<svg xmlns="http://www.w3.org/2000/svg" xmlns:xlink="http://www.w3.org/1999/xlink" viewBox="0 0 100.99 91.61"><defs><style>.cls-1{fill:url(#linear-gradient);}.cls-2{fill:url(#linear-gradient-2);}</style><linearGradient id="linear-gradient" x1="95.73" y1="45.81" x2="6.34" y2="45.8" gradientUnits="userSpaceOnUse"><stop offset="0" stop-color="#93d1b2"/><stop offset="1" stop-color="#94d3c1"/></linearGradient><linearGradient id="linear-gradient-2" x1="86.29" y1="40.73" x2="25.78" y2="60.78" gradientUnits="userSpaceOnUse"><stop offset="0" stop-color="#5dc091"/><stop offset="1" stop-color="#5fc2a8"/></linearGradient></defs><g id="Layer_2" data-name="Layer 2"><g id="Layer_1-2" data-name="Layer 1"><path class="cls-1" d="M99.34,49A32.25,32.25,0,0,0,82.78,30.13a32.38,32.38,0,0,0-64.61,0A32.38,32.38,0,1,0,50.5,86.06,32.37,32.37,0,0,0,99.34,49Z"/><path class="cls-2" d="M64.68,61.47A32.45,32.45,0,0,1,50.5,86.06,32.16,32.16,0,0,1,37.88,69.41a32.6,32.6,0,0,1-1.57-7.92A32.4,32.4,0,0,1,18.17,30.13a31.76,31.76,0,0,1,4-1.64,32.29,32.29,0,0,1,28.29,3.9,32.34,32.34,0,0,1,32.28-2.27A32.39,32.39,0,0,1,64.68,61.47Z"/></g></g></svg>